{
    "asset" : {
        "generator" : "Khronos glTF Blender I/O v1.1.46",
        "version" : "2.0"
    },
    "scene" : 0,
    "scenes" : [
        {
            "extras" : {
                "ats_settings" : {
                    "num_tiles" : [
                        30,
                        17
                    ],
                    "threads_error" : 0,
                    "prev_engine" : "CYCLES",
                    "prev_device" : "CPU",
                    "prev_border" : 0,
                    "prev_threads" : 4,
                    "prev_choice" : "32",
                    "prev_res" : [
                        960,
                        540
                    ],
                    "prev_border_res" : [
                        0,
                        0,
                        1,
                        1
                    ],
                    "prev_actual_tile_size" : [
                        32,
                        32
                    ],
                    "first_run" : 0
                },
                "measureit_gl_ghost" : 1,
                "measureit_debug" : 0,
                "measureit_gl_precision" : 1,
                "measureit_units" : 2,
                "measureit_hide_units" : 0,
                "measureit_scale" : 0,
                "measureit_ovr" : 0,
                "measureit_gl_show_n" : 0
            },
            "name" : "Scene",
            "nodes" : [
                0
            ]
        }
    ],
    "nodes" : [
        {
            "mesh" : 0,
            "name" : "MA0622",
            "rotation" : [
                -0.06721670925617218,
                0.9659778475761414,
                0.19203807413578033,
                0.15965603291988373
            ],
            "scale" : [
                1.1514675617218018,
                1.1514626741409302,
                1.1514625549316406
            ],
            "translation" : [
                -0.0044118259102106094,
                -0.012694151140749454,
                0.002140848897397518
            ]
        }
    ],
    "materials" : [
        {
            "doubleSided" : true,
            "emissiveFactor" : [
                0,
                0,
                0
            ],
            "name" : "MA0622",
            "pbrMetallicRoughness" : {
                "baseColorTexture" : {
                    "index" : 0,
                    "texCoord" : 0
                },
                "metallicFactor" : 0,
                "roughnessFactor" : 0.5
            }
        }
    ],
    "meshes" : [
        {
            "name" : "MA0622",
            "primitives" : [
                {
                    "attributes" : {
                        "POSITION" : 0,
                        "NORMAL" : 1,
                        "TEXCOORD_0" : 2
                    },
                    "indices" : 3,
                    "material" : 0
                }
            ]
        }
    ],
    "textures" : [
        {
            "source" : 0
        }
    ],
    "images" : [
        {
            "bufferView" : 4,
            "mimeType" : "image/jpeg",
            "name" : "MA0622_corregida"
        }
    ],
    "accessors" : [
        {
            "bufferView" : 0,
            "componentType" : 5126,
            "count" : 2523,
            "max" : [
                0.2893006503582001,
                0.26727014780044556,
                0.13291403651237488
            ],
            "min" : [
                -0.20764492452144623,
                -0.19374054670333862,
                -0.11033610999584198
            ],
            "type" : "VEC3"
        },
        {
            "bufferView" : 1,
            "componentType" : 5126,
            "count" : 2523,
            "type" : "VEC3"
        },
        {
            "bufferView" : 2,
            "componentType" : 5126,
            "count" : 2523,
            "type" : "VEC2"
        },
        {
            "bufferView" : 3,
            "componentType" : 5123,
            "count" : 10800,
            "type" : "SCALAR"
        }
    ],
    "bufferViews" : [
        {
            "buffer" : 0,
            "byteLength" : 30276,
            "byteOffset" : 0
        },
        {
            "buffer" : 0,
            "byteLength" : 30276,
            "byteOffset" : 30276
        },
        {
            "buffer" : 0,
            "byteLength" : 20184,
            "byteOffset" : 60552
        },
        {
            "buffer" : 0,
            "byteLength" : 21600,
            "byteOffset" : 80736
        },
        {
            "buffer" : 0,
            "byteLength" : 962323,
            "byteOffset" : 102336
        }
    ],
    "buffers" : [
        {
            "byteLength" : 1064660,
            "uri" : "data:application/octet-stream;base64,"
        }
    ]
}
